REM DIRINDEX 1\2,1\3,1\4,1\5\6,1\5\7,1\8
REM DIRNAME folder01,folder02,folder03,folder04,folder05,folder06,folder07,folder08
TITLE ""
FILE "008 【008】Unit1 (0085 overdue_0096 interact).mp3" MP3
  TRACK 01 AUDIO
    TITLE "0:"
    INDEX 01 00:00:00
  TRACK 02 AUDIO
    TITLE "2:cjc115_0254"
    INDEX 01 00:00:07
  TRACK 03 AUDIO
    TITLE "0:"
    INDEX 01 00:01:34
  TRACK 04 AUDIO
    TITLE "3:cjc115_0255"
    INDEX 01 00:01:42
  TRACK 05 AUDIO
    TITLE "0:"
    INDEX 01 00:04:23
  TRACK 06 AUDIO
    TITLE "4:cjc115_0256"
    INDEX 01 00:04:31
  TRACK 07 AUDIO
    TITLE "0:"
    INDEX 01 00:08:36
  TRACK 08 AUDIO
    TITLE "2:cjc115_0257"
    INDEX 01 00:09:44
  TRACK 09 AUDIO
    TITLE "0:"
    INDEX 01 00:10:68
  TRACK 10 AUDIO
    TITLE "3:cjc115_0258"
    INDEX 01 00:10:72
  TRACK 11 AUDIO
    TITLE "0:"
    INDEX 01 00:12:16
  TRACK 12 AUDIO
    TITLE "4:cjc115_0259"
    INDEX 01 00:12:22
  TRACK 13 AUDIO
    TITLE "0:"
    INDEX 01 00:16:63
  TRACK 14 AUDIO
    TITLE "2:cjc115_0260"
    INDEX 01 00:17:69
  TRACK 15 AUDIO
    TITLE "0:"
    INDEX 01 00:18:68
  TRACK 16 AUDIO
    TITLE "3:cjc115_0261"
    INDEX 01 00:19:05
  TRACK 17 AUDIO
    TITLE "0:"
    INDEX 01 00:21:51
  TRACK 18 AUDIO
    TITLE "4:cjc115_0262"
    INDEX 01 00:22:01
  TRACK 19 AUDIO
    TITLE "0:"
    INDEX 01 00:25:72
  TRACK 20 AUDIO
    TITLE "2:cjc115_0263"
    INDEX 01 00:27:06
  TRACK 21 AUDIO
    TITLE "0:"
    INDEX 01 00:28:27
  TRACK 22 AUDIO
    TITLE "3:cjc115_0264"
    INDEX 01 00:28:29
  TRACK 23 AUDIO
    TITLE "0:"
    INDEX 01 00:29:54
  TRACK 24 AUDIO
    TITLE "4:cjc115_0265"
    INDEX 01 00:29:72
  TRACK 25 AUDIO
    TITLE "0:"
    INDEX 01 00:32:48
  TRACK 26 AUDIO
    TITLE "2:cjc115_0266"
    INDEX 01 00:33:52
  TRACK 27 AUDIO
    TITLE "0:"
    INDEX 01 00:35:08
  TRACK 28 AUDIO
    TITLE "3:cjc115_0267"
    INDEX 01 00:35:19
  TRACK 29 AUDIO
    TITLE "0:"
    INDEX 01 00:36:36
  TRACK 30 AUDIO
    TITLE "4:cjc115_0268"
    INDEX 01 00:36:44
  TRACK 31 AUDIO
    TITLE "0:"
    INDEX 01 00:41:16
  TRACK 32 AUDIO
    TITLE "2:cjc115_0269"
    INDEX 01 00:42:23
  TRACK 33 AUDIO
    TITLE "0:"
    INDEX 01 00:43:44
  TRACK 34 AUDIO
    TITLE "3:cjc115_0270"
    INDEX 01 00:43:52
  TRACK 35 AUDIO
    TITLE "0:"
    INDEX 01 00:45:00
  TRACK 36 AUDIO
    TITLE "4:cjc115_0271"
    INDEX 01 00:45:08
  TRACK 37 AUDIO
    TITLE "0:"
    INDEX 01 00:47:72
  TRACK 38 AUDIO
    TITLE "2:cjc115_0272"
    INDEX 01 00:49:10
  TRACK 39 AUDIO
    TITLE "0:"
    INDEX 01 00:50:29
  TRACK 40 AUDIO
    TITLE "3:cjc115_0273"
    INDEX 01 00:50:35
  TRACK 41 AUDIO
    TITLE "0:"
    INDEX 01 00:52:26
  TRACK 42 AUDIO
    TITLE "4:cjc115_0274"
    INDEX 01 00:52:36
  TRACK 43 AUDIO
    TITLE "0:"
    INDEX 01 00:56:69
  TRACK 44 AUDIO
    TITLE "2:cjc115_0275"
    INDEX 01 00:58:03
  TRACK 45 AUDIO
    TITLE "0:"
    INDEX 01 00:59:24
  TRACK 46 AUDIO
    TITLE "3:cjc115_0276"
    INDEX 01 00:59:34
  TRACK 47 AUDIO
    TITLE "0:"
    INDEX 01 01:00:74
  TRACK 48 AUDIO
    TITLE "4:cjc115_0277"
    INDEX 01 01:01:07
  TRACK 49 AUDIO
    TITLE "0:"
    INDEX 01 01:05:21
  TRACK 50 AUDIO
    TITLE "2:cjc115_0278"
    INDEX 01 01:06:30
  TRACK 51 AUDIO
    TITLE "0:"
    INDEX 01 01:07:39
  TRACK 52 AUDIO
    TITLE "3:cjc115_0279"
    INDEX 01 01:07:49
  TRACK 53 AUDIO
    TITLE "0:"
    INDEX 01 01:08:74
  TRACK 54 AUDIO
    TITLE "4:cjc115_0280"
    INDEX 01 01:09:09
  TRACK 55 AUDIO
    TITLE "0:"
    INDEX 01 01:12:54
  TRACK 56 AUDIO
    TITLE "2:cjc115_0281"
    INDEX 01 01:13:61
  TRACK 57 AUDIO
    TITLE "0:"
    INDEX 01 01:14:70
  TRACK 58 AUDIO
    TITLE "3:cjc115_0282"
    INDEX 01 01:15:07
  TRACK 59 AUDIO
    TITLE "0:"
    INDEX 01 01:16:16
  TRACK 60 AUDIO
    TITLE "4:cjc115_0283"
    INDEX 01 01:16:26
  TRACK 61 AUDIO
    TITLE "0:"
    INDEX 01 01:19:60
  TRACK 62 AUDIO
    TITLE "2:cjc115_0284"
    INDEX 01 01:20:67
  TRACK 63 AUDIO
    TITLE "0:"
    INDEX 01 01:22:19
  TRACK 64 AUDIO
    TITLE "3:cjc115_0285"
    INDEX 01 01:22:29
  TRACK 65 AUDIO
    TITLE "0:"
    INDEX 01 01:24:10
  TRACK 66 AUDIO
    TITLE "4:cjc115_0286"
    INDEX 01 01:24:16
  TRACK 67 AUDIO
    TITLE "0:"
    INDEX 01 01:29:58
  TRACK 68 AUDIO
    TITLE "2:cjc115_0287"
    INDEX 01 01:30:67
  TRACK 69 AUDIO
    TITLE "0:"
    INDEX 01 01:32:19
  TRACK 70 AUDIO
    TITLE "3:cjc115_0288"
    INDEX 01 01:32:29
  TRACK 71 AUDIO
    TITLE "0:"
    INDEX 01 01:33:58
  TRACK 72 AUDIO
    TITLE "4:cjc115_0289"
    INDEX 01 01:33:64
  TRACK 73 AUDIO
    TITLE "0:"
    INDEX 01 01:38:42
